# xmcd
#
# Track frame offsets: 
#        150
#        24662
#        38552
#        65372
#        78190
#        99290
#        119212
#        133045
#
# Disc length: 2036 seconds
#
# Revision: 1
# Processed by: cddbd v1.5.2PL0 Copyright (c) Steve Scherf et al.
# Submitted via: ExactAudioCopy v1.0b3
#
DISCID=6207f208
DTITLE=Lorez Alexandria - Harlem Butterfly Vol. II - Sings the songs o
DTITLE=f Johnny Mercer
DYEAR=1985
DGENRE=Jazz
TTITLE0=Love's got me in a lazy Mood
TTITLE1=This time the dream's on Me
TTITLE2=Mandy is two
TTITLE3=Come rain or come shine
TTITLE4=Harlem Butterfly
TTITLE5=Skylark
TTITLE6=P.S. I Love You
TTITLE7=Too marvelous for words
EXTD=YEAR: 1985
EXTT0=
EXTT1=
EXTT2=
EXTT3=
EXTT4=
EXTT5=
EXTT6=
EXTT7=
PLAYORDER=
